<svg xmlns="http://www.w3.org/2000/svg" viewBox="0 0 512 512">
  <rect width="512" height="512" fill="#3b82f6" rx="112" />
  <path d="M256 100c-86.1 0-156 69.9-156 156s69.9 156 156 156 156-69.9 156-156-69.9-156-156-156zm0 280c-68.4 0-124-55.6-124-124s55.6-124 124-124 124 55.6 124 124-55.6 124-124 124z" fill="#ffffff" />
  <path d="M256 180c-41.9 0-76 34.1-76 76s34.1 76 76 76 76-34.1 76-76-34.1-76-76-76zm0 120c-24.3 0-44-19.7-44-44s19.7-44 44-44 44 19.7 44 44-19.7 44-44 44z" fill="#ffffff" />
</svg>
